<svg width="24" height="24" viewBox="0 0 24 24" fill="none" xmlns="http://www.w3.org/2000/svg">
<rect width="24" height="24" rx="5" fill="#1D1C1A"/>
<path fill-rule="evenodd" clip-rule="evenodd" d="M7.40441 5.28309C6.81862 4.6973 5.86888 4.6973 5.28309 5.28309C4.6973 5.86888 4.6973 6.81862 5.28309 7.40441L9.52573 11.6471C9.72099 11.8423 9.72099 12.1589 9.52573 12.3542L5.28309 16.5968C4.6973 17.1826 4.6973 18.1323 5.28309 18.7181C5.86888 19.3039 6.81862 19.3039 7.40441 18.7181L11.6471 14.4755C11.8423 14.2802 12.1589 14.2802 12.3542 14.4755L16.5968 18.7181C17.1826 19.3039 18.1323 19.3039 18.7181 18.7181C19.3039 18.1323 19.3039 17.1826 18.7181 16.5968L14.4755 12.3542C14.2802 12.1589 14.2802 11.8423 14.4755 11.6471L18.7181 7.40441C19.3039 6.81862 19.3039 5.86888 18.7181 5.28309C18.1323 4.6973 17.1826 4.6973 16.5968 5.28309L12.3542 9.52573C12.1589 9.72099 11.8423 9.72099 11.6471 9.52573C11.4518 9.33047 11.4518 9.01389 11.6471 8.81862L15.8897 4.57598C16.866 3.59967 18.4489 3.59967 19.4252 4.57598C20.4015 5.55229 20.4015 7.13521 19.4252 8.11152L15.5361 12.0006L19.4252 15.8897C20.4015 16.866 20.4015 18.4489 19.4252 19.4252C18.4489 20.4015 16.866 20.4015 15.8897 19.4252L12.0006 15.5361L8.11152 19.4252C7.13521 20.4015 5.55229 20.4015 4.57598 19.4252C3.59967 18.4489 3.59967 16.866 4.57598 15.8897L8.46507 12.0006L4.57598 8.11152C3.59967 7.13521 3.59967 5.55229 4.57598 4.57598C5.55229 3.59967 7.13521 3.59967 8.11152 4.57598L10.2328 6.6973C10.4281 6.89257 10.4281 7.20915 10.2328 7.40441C10.0376 7.59967 9.72099 7.59967 9.52573 7.40441L7.40441 5.28309Z" fill="#FF0000"/>
</svg>
