<svg width="24" height="24" viewBox="0 0 24 24" fill="none" xmlns="http://www.w3.org/2000/svg">
<rect width="24" height="24" rx="5" fill="#1D1C1A"/>
<path fill-rule="evenodd" clip-rule="evenodd" d="M14.9164 3.50571C15.4833 2.83579 16.5016 2.79343 17.1222 3.41396L18.7031 4.99484C19.2547 5.54648 19.2914 6.42888 18.7875 7.02442L8.38183 19.322C8.33809 19.3737 8.28431 19.416 8.22374 19.4462L6.11817 20.499H20.0001C20.2763 20.499 20.5001 20.7229 20.5001 20.999C20.5001 21.2752 20.2763 21.499 20.0001 21.499H4.00014C3.76825 21.499 3.56679 21.3396 3.51351 21.1139C3.46023 20.8882 3.56912 20.6555 3.77653 20.5518L7.68473 18.5977L18.0241 6.37848C18.1921 6.17996 18.1798 5.88583 17.9959 5.70195L16.4151 4.12107C16.2082 3.91422 15.8688 3.92834 15.6798 4.15165L5.44403 16.2485L4.47448 19.1571C4.38715 19.4191 4.10399 19.5607 3.84202 19.4734C3.58005 19.386 3.43847 19.1029 3.52579 18.8409L4.52579 15.8409C4.54591 15.7806 4.57735 15.7246 4.61844 15.6761L14.9164 3.50571Z" fill="#84BB70"/>
</svg>
